<svg xmlns="http://www.w3.org/2000/svg" viewBox="0 0 62.021 62.021"><path d="M60.29 52.622c-3.266-1.366-8.2-3.854-13.467-8.026-5.618-4.45-8.819-8.042-10.54-10.321 2.775-.847 6.844-2.635 11.876-6.409 9.854-7.391 9.147-20.419 9.112-20.97-.076-1.203-.988-2.214-2.185-2.358-1.201-.144-2.314.552-2.674 1.703-.007.017-.692 1.756-3.579 3.648-1.641 1.074-5.259 1.449-8.45 1.78-3.012.313-5.855.606-7.901 1.484-1.81.775-3.084 1.631-3.977 2.415-1.339-.98-3.205-2.264-5.097-3.288-2.311-1.251-5.323-1.351-8.237-1.447-2.128-.07-4.328-.144-5.909-.671C6.24 9.155 4.795 6.06 4.787 6.044A2.499 2.499 0 0 0 .003 7.18c.025.49.698 12.102 8.801 20.054a27.35 27.35 0 0 0 15.693 7.629c0 2.54.229 6.707 1.409 11.339.837 3.283 2.422 6.707 4.711 10.178a2.501 2.501 0 0 0 2.087 1.123h26.797a2.5 2.5 0 0 0 2.52-2.5 2.503 2.503 0 0 0-1.731-2.381z" fill="#231f20"/></svg>